<svg version="1.2" xmlns="http://www.w3.org/2000/svg" viewBox="0 0 32 32" width="128" height="128">
	<title>prisma</title>
	<style>
		.s0 { fill: #0c344b } 
	</style>
	<path fill-rule="evenodd" class="s0" d="m27.5 24q0 0.4-0.1 0.7-0.2 0.3-0.5 0.5-0.2 0.3-0.6 0.4l-14.7 4.3q-0.2 0.1-0.5 0.1-0.2 0-0.5-0.1-0.2-0.1-0.4-0.3-0.2-0.1-0.4-0.3l-5-8q-0.2-0.1-0.2-0.4-0.1-0.2-0.1-0.4 0-0.2 0.1-0.4 0-0.3 0.1-0.5l10.4-16.9q0.1-0.1 0.3-0.3 0.1-0.1 0.3-0.2 0.2-0.1 0.4-0.2 0.2 0 0.4 0 0.2 0 0.4 0.1 0.2 0 0.4 0.2 0.1 0.1 0.3 0.2 0.1 0.2 0.2 0.4l9.5 20.4q0.2 0.4 0.2 0.7zm-2.1 0.1q0.1-0.1 0.2-0.2 0-0.1 0-0.3 0-0.1 0-0.2l-8.3-17.7q0-0.1-0.1-0.2-0.2 0-0.3 0-0.1 0-0.2 0.1-0.1 0.1-0.2 0.2l-4.4 21.5q-0.1 0.2 0 0.3 0 0.1 0.1 0.2 0.1 0.1 0.3 0.1 0.1 0.1 0.2 0l12.5-3.7q0.1 0 0.2-0.1z"/>
</svg>